<?xml version="1.0" encoding="utf-8"?>
<!-- Generator: Adobe Illustrator 22.1.0, SVG Export Plug-In . SVG Version: 6.00 Build 0)  -->
<svg version="1.1" id="Layer_1" xmlns="http://www.w3.org/2000/svg" xmlns:xlink="http://www.w3.org/1999/xlink" x="0px" y="0px"
	 viewBox="0 0 548 390" style="enable-background:new 0 0 548 390;" xml:space="preserve">
<style type="text/css">
	.st0{fill:#FCBC2C;}
	.st1{fill:#FFDB6E;}
	.st2{fill:#DA282E;}
	.st3{fill:#FFFBED;}
	.st4{fill:#B22B30;}
	.st5{fill:#E0360E;}
	.st6{font-family:'TimesNewRomanPSMT';}
	.st7{font-size:53.9143px;}
</style>
<g>
	<g id="background">
	</g>
	<g id="grunge_5_">
	</g>
	<g id="fries_1_">
		<path class="st0" d="M196.8,126.2l1.4,0.1c1.2,0,2.4-1.2,2.7-2.8c0.1-0.3,0.4-1.1,0.6-1.5c0.7-1.5,1.6-3.3,1.2-5.4
			c-0.2-1.2-0.7-2.1-1.5-2.6c-0.2-0.3-0.6-0.3-1-0.3s-0.9,0.1-1.2,0.4c-2,1.5-3.6,4.5-4.2,8.2c-0.1,0.9,0,2,0.4,2.6
			C195.4,125.7,196,126.2,196.8,126.2z"/>
		<path class="st0" d="M419.5,160c-0.2-0.9-0.6-1.6-1.2-1.8l0,0c-0.1-1.1-0.5-1.8-1.1-2.2c-5.1-3.3-11.1-4.2-16.8-5.1
			c-3.6-0.5-7.1-1.1-10.4-2.2c0.5-2.5,0.2-5,0.1-7.5c-0.1-1.8-0.2-4,0-4.9c0.2-0.9,0.2-2-0.1-2.8c0.9-1.6,1.4-3.7,0.9-6.5
			c-0.2-1.1-0.7-2-1.6-2.1c-19.3-5.9-39.4-12-60.4-14.9h-0.1c-0.2,0-0.6,0-0.9,0.1l-3.2-9c-0.2-0.8-0.7-1.3-1.4-1.5l0.1-0.5
			c0.2-1.1,0.1-2.1-0.4-2.9c-0.4-0.7-1-1.1-1.6-1.2c-0.1,0-0.1,0-0.2,0c-5.4,0.7-9.1,4.5-12.8,8.2c-2.5,2.5-4.9,4.9-7.7,6.2
			c-0.7,0.4-1.5,1.3-1.7,2.4c-0.4,1.7-0.5,3.7-0.6,5.7c-0.1,2.8-0.2,5.5-1.2,6.9c-0.9,1.2-1.1,2.9-0.6,4.4c0.2,0.7,0.7,1.2,1.2,1.3
			c0.6,4.6,3.6,5.8,5.6,6.5h0.1c-1.4,0.1-2.9,0.3-4.2,0.5c-12.3,1.5-24.9,2.9-37.7,3.7c0.1-0.3,0.2-0.5,0.4-0.8
			c0.2-0.9,0.2-1.8,0-2.6c-0.9-2.8-2.9-4.5-4.7-5.9c-0.2-0.3-0.6-0.3-0.9-0.3s-0.5,0-0.7,0.1c0.1-0.9,0.1-2,0.2-2.8
			c0.1-1.3,0.1-2.5,0.4-3.4c0.2-1.1,0-2.2-0.5-3c-0.4-0.5-0.9-0.8-1.5-0.9c-0.2,0-0.5,0-0.6,0.1c-7.4,2.6-15.7,6.2-23.3,12.4
			c0.4-3.2,0.1-6.2,0-6.6c-0.1-0.9-0.5-1.6-1-2c0.2-0.3,0.4-0.5,0.6-0.8c0.7-0.9,1.1-2.4,0.9-3.7c-0.2-1.3-1-2.1-1.9-2.2
			c-1.6-0.9-3-2.2-4.5-3.4c-2.6-2.2-5.2-4.6-9.1-5.3c-0.1,0-0.1,0-0.2,0c-0.9,0-1.7,0.7-2.2,1.8c-1.6,3.8-3.4,7.5-5.1,11.2
			c0,0,0-0.1-0.1-0.1c-0.4-0.5-0.9-0.8-1.4-0.8c-0.4,0-0.7,0.1-1.1,0.4c-3.7,2.5-8.2,4.4-12.7,6.1c-1.6,0.7-3.2,1.3-4.9,2.1
			c0.4-0.5,0.7-1.2,1.1-2.1c0.4-0.9,0.4-2,0.1-2.9s-0.9-1.5-1.5-1.7c-4.5-1.1-9-2.4-13.5-3.7c-8.5-2.5-17.2-5-26.7-5.9
			c0,0,0,0-0.1,0c-0.9,0-1.7,0.7-2.2,1.8l-8.2,18.9c-0.4,0.9-0.5,2-0.2,2.9c0.1,0.4,0.2,0.8,0.5,1.1c-0.1,0.3-0.2,0.5-0.2,0.8
			c-1.2,5.3,0.6,10.9,3,14.1c-0.2,0.4-0.5,0.9-0.6,1.3c-0.2,0.8-0.2,1.7,0,2.5c-0.9,0.4-1.5,1.3-1.9,2.5c-1.2,5.9,0,10.4,1.9,14.4
			c-0.6,0.3-1.1,0.8-1.4,1.6l-2.4,5.4c-0.2,0.7-0.4,1.3-0.4,2c1,0.5,1.9,1.8,1.6,3.8c1.4-0.3,2.9,0.4,3.5,2.5
			c2.5,8.2,3.7,16.4,3.9,25.2c0.6,0.1,1.4,0.1,2,0.3l0,0c4.6,0.1,9.2-1.6,13.8-3.2c2-0.8,3.9-1.5,5.7-2c-0.7,1.6-1.6,3-2.4,4.6
			c-0.5,0.9-0.6,2.1-0.4,3.2c0.2,1.1,0.9,1.8,1.5,2c4.6,1.5,9.5,2.9,14.2,4.2c0.1,0,0.2,0,0.4,0c0.6,0,1.2-0.3,1.6-0.8
			c0.2-0.3,0.5-0.7,0.7-0.9c0.1,0.3,0.1,0.5,0.2,0.7c1.4,2.6,3.6,2.6,4.4,2.8c0.5,0,1,0,1.5,0c0.2,0,0.6,0,0.7,0h0.1
			c0.1,0,0.2,0,0.4,0c0.5,0,0.9-0.1,1.2-0.5c0.1,0.4,0.4,0.8,0.7,1.1c0.9,0.7,1.7,0.9,2.7,1.1c2.5,0.1,4.7-1.7,6.2-3
			c0.1-0.1,0.2-0.3,0.4-0.4c4.2,4.7,10.5,5.3,16.1,5.7c2.1,0.1,4.1,0.3,6,0.7c6.2,2.5,13.5,3.8,22.8,4.1c4.7,0.1,9.6,0.1,14.2,0
			c4.5-0.1,8.9-0.1,13,0c3,0.1,5.5,0.4,7.9,0.7h0.1c1.1,0,2.2-1.2,2.6-2.9c0-0.3,0-0.5,0.1-0.8c1.9,0.3,3.7,0.5,5.5,0.9
			c0.1,0,0.1,0,0.1,0h0.1c0.1,0,0.2,0,0.4,0c1.1,0,2.1,0.5,3.2,1.1c1.2,0.5,2.7,1.2,4.5,1.3c0.6,0,1.4,0,2-0.1
			c0.4-0.1,0.6-0.3,1-0.5v0.1c0.4,0.7,1,1.1,1.6,1.1h0.1l6.5-0.3c0.6,0,1.1-0.4,1.6-0.9c1-1.3,1.7-2.8,2.1-4.2
			c0.5,0.7,1.1,1.2,1.9,1.6c0.2,0.1,0.5,0.1,0.6,0.1s0.1,0,0.2,0c0,0.9,0.2,2,0.7,2.5c0.4,0.4,0.9,0.7,1.2,0.7c0.1,0,0.2,0,0.4,0
			l0,0c0.1,0,0.4,0,0.5,0.1c1.1,0,2-0.5,2.7-1.7c0.1,0.3,0.2,0.4,0.4,0.5c0.4,0.3,0.7,0.5,1.1,0.5c0.2,0,0.5,0,0.7-0.1
			c2.4-1.1,5-1.3,7.7-1.6c4.5-0.4,9.1-0.9,13.2-4.7c0.7-0.5,1.6-1.1,2.4-1.6c0,0.1,0,0.3,0,0.4c0.1,1.5,1,2.4,2,2.4
			c0.1,0,0.2,0,0.2,0c4.2-0.5,8.1-2.4,11.8-4.9c0.4,1.1,1,1.7,1.9,1.8c0.1,0,0.2,0,0.4,0c1.2-0.3,2.6-0.4,4-0.5
			c3-0.3,6.1-0.5,9.1-2.4c0.6-0.4,1.1-1.1,1.4-1.8c0.1-0.5,0.2-1.1,0.2-1.6h0.1h0.1c0.6,0,1.2-0.3,1.7-0.9s1.1-1.3,1.7-2.1
			c3.4-4,7.1-8.4,9.1-14.4c0.4-1.2,0.2-2.6-0.2-3.6c1-0.8,2.1-1.5,3.2-2.1c4.2-2.8,9.1-5.8,11.6-13.6c0.4-1.1,0.2-2.2-0.1-3
			c0.4-0.3,0.6-0.7,1-0.9c0.7-0.7,1.1-1.8,1.1-2.9c0-0.1,0-0.1,0-0.3c0.1-0.1,0.4-0.3,0.5-0.4c0.1-0.1,0.2-0.4,0.4-0.5
			c0.1,0,0.2,0,0.2,0h1.2c0.6,0,1.1-0.3,1.6-0.8c0.5-0.5,1.9-0.8,2.9-0.9c2.1-0.4,4.9-1.1,6.4-4.2
			C420.2,166.3,420.3,163.5,419.5,160z"/>
		<path class="st1" d="M228,94.4l1,1.2C228.7,95.2,228.3,94.8,228,94.4z"/>
		<path class="st1" d="M212.6,90.5c0,1.2,0.2,1.8,0.6,2.4L212.6,90.5z"/>
		<path class="st1" d="M223.2,102.9c0.1,0,0.2,0.1,0.4,0.1C223.5,102.9,223.3,102.9,223.2,102.9z"/>
		<path class="st1" d="M238.9,103.1c5.7,4.7,12-4.6,18.5-4.1c6,3.7,7.1,14.1,10.1,21.4l-0.9,1.3c-6.1-2.9-5.5-12.4-9.2-18.2
			c-9.5,2.9-19.3,7.3-28.2,11.7c2.1,0.1,3.2,2.8,5.4,2.9c1.2,3.8,5.6,6.9,3.9,13.5l24.1-10.7l0.9,1.1c5.9-0.8-0.5,8.2,2.9,9.6
			c4.9,16.9,20.1,6.9,29.7,8.7l0.1-1.3c-8.1-10.7-16.6-20.7-25.2-29.9c-7.2-3.8-11.8-26-21.1-13.3c-4.9,3.2-7.9-2.8-10-7.4
			c-2.7-1.5-5.7,1.8-8.2,4.1C233.1,96.7,237.1,98.2,238.9,103.1z"/>
		<path class="st1" d="M310,129c6.1-3.7,13.1-3.8,19.2-8.6l4.5-20.2c-8.7,0.9-13.1,10.7-21.1,14.2C311.7,118.4,312.8,125.4,310,129z
			"/>
		<path class="st1" d="M335.4,131.1l4.1-15.7l-4.1-10.6C332.9,113.2,328,124.9,335.4,131.1z"/>
		<path class="st1" d="M392.9,144.7c-18.1-4.9-37.4-8.8-54.6-14.8c0.2,4-2.7,2.5-3.7,5.4c2.9,0.9,6.6-0.9,9.2,0
			c2.2,7.8,6.2,14.9,6.2,23.9c0.7,3.2,2.2,7.3,0.6,10.2c-13.5-2.2-21.6,15.6-32.2,24.5c2.1,1.7,3.9,4.5,6.5,5.4
			c14.2-14.6,29.4-26.2,43.3-40.9l0.1-1.3c-6.2-1.1-12-4.1-18-5.9c-0.2-1.3-1.4-2.5,0.2-3.2c14.6,6.9,31.8,7.5,47.1,12.5l1.4-11.3
			c4.5-3.4,0.6,5.8,2,7.8c7.5-1.7,3-12.3,4.5-17.8l-5.7,5.5c-1.4-7,7.6-5.9,6.4-12.9c-21.1-6.3-42.2-12.8-64.4-16.1l-2.2,10.4
			c18.2,7.5,38.9,9.4,57.4,17c1.2,0.9,4,0.8,3.7,4.2C398,149.2,395.5,145.6,392.9,144.7z"/>
		<path class="st1" d="M183.2,222.8c6.6-7.4,10.6-17.4,15.8-26.4c5-15,23.3-31.7,11.1-48.4c3.9-2.2,8.1-4.6,11.6-6.9
			c8.1,0.1,8.2-12.8,13.2-18.3h-0.4c-5.4-2.9-8.6-8.2-14.5-9.2c-6.7,15-14,27.6-20,42.9c-11.7,20-21,41.6-32.2,61.9
			C173.1,219.9,178.2,221.5,183.2,222.8z M198.7,178.6c-0.1,2.1,1.6,5.4-0.5,6.3L198.7,178.6z M187.2,193.4c1.1,0.5,1.7,2.2,1.6,3.8
			c-0.9,0.5-1.2-0.7-1.7-1.5L187.2,193.4z"/>
		<path class="st1" d="M332.4,131.5l-3.9-8.4c-5.2,4.2-11.5,4-16.8,7.9c0.5,4.7,4.9,4.2,7.4,6.2
			C323.6,138.9,328.7,135.4,332.4,131.5z"/>
		<path class="st1" d="M184.1,122l8.4,1.7c1-2.1,2.5-3.8,2.9-6.2C191.2,117.5,184.2,115.3,184.1,122z"/>
		<path class="st1" d="M183.8,131.5c2.1-1.7,5.4-1.3,6.4-4.2c-14.2-3.4-27.6-8.8-42.7-10.4l-8.6,19.1l7.6,3
			C159.9,143.5,172.1,137.2,183.8,131.5z M171,135.3v0.5l-2-3.3C170.1,132,170.8,134,171,135.3z"/>
		<path class="st1" d="M236.4,139.1c6.1,2.9,14.8,0.8,22.1,1.2c3.7-2.8,2.9-10.2,3.6-14.4C253.2,129,244.1,132.7,236.4,139.1z"/>
		<path class="st1" d="M177.1,139.8c-12.3,2.8-23.7,10.2-35.4,16.2c2.9,5.4,4.1,14.2,9.9,15.6c19.6-15.2,49-11.2,59.1-45.9
			c-6.4,4-14.2,6.2-21.2,9.2C185.6,138,180.4,134.7,177.1,139.8z"/>
		<path class="st1" d="M230.5,138.9l1.4,0.1c3.1-0.1,3-7.3,2.6-9.9L230.5,138.9z"/>
		<path class="st1" d="M354.9,175.8l1.7,2.8c5.4-1.8,12.3-2.8,16.1-5.5c-3-3.6-9-0.5-11.6-4.6C359.1,171.2,356.2,172.9,354.9,175.8z
			"/>
		<path class="st1" d="M215.6,149.6c0.7,8.8,3.5,17.1,4.7,25.1c3.1-0.7,6.7-0.4,9.9-2.1c1.2-3.2,1.2-7.9-1.1-9.6
			c1-2.4,2.6-0.7,4-1.1c3.2,2-0.1,5.8,0.6,8.4l2.6,0.7c36.2-5.8,74-4.6,111.3-5.7c-0.4-9-2.7-16.8-4.7-25.2
			c-37.7,2.2-76.1,9.6-115.2,4.4C223.7,143.6,219.1,146.5,215.6,149.6z M253.3,157.7c0.4,0,1.1,0,1.2,0.9l-1.4-0.1L253.3,157.7z"/>
		<path class="st1" d="M264.4,136.1l-0.4,5c1.5,0.1,3.2,0.7,4.6-0.3C267.9,138.7,266.1,137.3,264.4,136.1z"/>
		<path class="st1" d="M142.1,151.5c5.1-1.3,9.6-6.6,14.2-8.3c-5.4-2.1-12.1-2.2-17.3-3.3C138.2,143.9,139.9,148.8,142.1,151.5z"/>
		<path class="st1" d="M151.8,180.6l25.4-6.9c7.4-4.1,16.6-7.1,18.8-19.4c-15.2,6.3-30.6,14-45.4,22.3
			C151,177.9,150.3,180.3,151.8,180.6z"/>
		<path class="st1" d="M315.6,191l23.3-21.5c-1.7,0.4-2.6-1.5-4.1-1.1c-10.6-4-17.8,8.3-26.3,14.5C309.9,186.1,313.2,189,315.6,191z
			"/>
		<path class="st1" d="M308.9,168.8c-5.5,0.8-11.2,0.3-16,1.8c4.2,4.2,8.9,8.4,13.3,10.7c3.6-4.4,9.1-5.4,11.2-11.3L308.9,168.8z"/>
		<path class="st1" d="M147.4,181.7c0.6-7.9-5.6-13.6-7.5-20.7c-1.9,9,4,14.5,7,21.2L147.4,181.7z"/>
		<path class="st1" d="M378.6,174.6c-17,8.7-37.3,2.9-51.3,26l-0.1,1.1c3.1,7.8,8.9,2.6,13.7,2c9.2-4.7,19.3-6.7,28.9-9.4
			c12.1,0.1,22.1-11.6,32.2-17.9C394.6,174.9,385.9,175,378.6,174.6z M373.1,184.9l-1.2-2c-0.1-0.1-0.2-0.3-0.2-0.4l0.2,0.4
			c0.4,0.4,0.9,0.5,1.4,0.9L373.1,184.9z"/>
		<path class="st1" d="M327.9,232.3c2.9-6.7,9.1-7.5,12.7-12.8l-2-3.3c-15-11.6-28.7-27.7-43.5-39c-6.1-12-18.2-3-27.4-4.6l1.4,2
			c10.2,8.4,19.2,22.7,29.6,32.7l24.3,6.3C330.5,215.8,321.8,229.4,327.9,232.3z"/>
		<path class="st1" d="M193.7,224.6c6.6-14.5,14-29.2,21.5-42.6c1,1.8-0.7,3.7-1,5.5c12,0.4,21.6-10.6,33.8-9.6l-0.5-0.5
			c-9.2-4.2-20.1,0-29.7,1.7c-2.4-3.6-0.7-7.1-3-10.4c-6.4,19.8-19.1,35.5-26.9,54.5C189.2,225.4,192.4,224.2,193.7,224.6z"/>
		<path class="st1" d="M293.6,205.6c-7.5-7-13.5-17.7-21.6-23.3c-4.9-1.6-7.1-13.1-12.8-8.3c10.6,10.8,21.3,21.5,31.9,32.1
			C291.9,206.1,293.4,206.7,293.6,205.6z"/>
		<path class="st1" d="M254.2,179.5c0.6-1.1,1.9-1.7,2.2-3c-0.6-4.2-5.1-2.6-5.4-2.1c1,1.1,3.1,2.5,2.2,5.1L254.2,179.5z"/>
		<path class="st1" d="M140.7,188.3c0.1,0.3,0.4,0.7,0.5,1.1c1.1,3.3,2,6.6,2.7,9.9c9.1-4.2,19.8-2.4,28.2-9
			c8,2.1,7.7-10.6,12.5-15.3C169.7,178.6,155.2,183.5,140.7,188.3z"/>
		<path class="st1" d="M144.4,201.9c0.6,3.8,1.1,7.7,1.2,11.6c7.2-0.1,15-4.1,22.1-5.9l7.4-14h-1.9
			C164.6,199.9,153.9,198.6,144.4,201.9z"/>
		<path class="st1" d="M238.6,182.4c-6.7,4.4-14.2,4.1-21.1,7.9c8.9,4.2,20.6,7.7,30.6,1.6c1.4-3.2,2.1-6.7,2.2-10.7
			C246.4,181.5,242.6,182.1,238.6,182.4z"/>
		<path class="st1" d="M247.9,197.4c6.9-1.2,12.5-8.3,19.3-9.6c-2.6-7.3-9.6-2.6-14.6-3.4c-2.5,3.8-1.9,12.7-7.4,11.7
			C244.7,197.8,247.8,194.8,247.9,197.4z"/>
		<path class="st1" d="M138,183.6l2.2,0.1c2.9-0.4,1-4.7,0.1-5.5L138,183.6z"/>
		<path class="st1" d="M278,198c-1.9-2.5-3.9-5-5.7-6.6c-7.1-2.5-13.5,4.6-19.7,7.1C260.3,200.2,270.6,205.8,278,198z"/>
		<path class="st1" d="M374,196.7c-13.7,2-26.6,6.6-39.4,11.7c0.6,1.6,1.6,2,2.5,2.8C349.6,207.2,362.4,204.2,374,196.7z"/>
		<path class="st1" d="M310.9,235.2c4-5.7,8-11.2,10.5-17.9c-14.6-2.4-27.7-8.3-42.8-9.6c-22.8-3.3-44-10.9-67.4-13.1
			c-2.5,6.7-8.2,12.8-9.7,21c16.8-0.9,34.1,5.1,50,6.6c15.6,5.3,32.3,8,49,10.7C304.3,232.7,306.8,236,310.9,235.2z M220,214.6
			l-2.2-0.1v-0.5l2.2,0.1V214.6z"/>
		<path class="st1" d="M282.2,202.5c-1.5-4.6-4.2,0.3-6.4,0.5C277.5,203.8,281,204.4,282.2,202.5z"/>
		<path class="st1" d="M392,224.7c-0.6-2.1-0.1-4.7-1.4-6.5c-3.9,3-7.9,5.9-12,9C383.2,226.5,388,227.3,392,224.7z"/>
		<path class="st1" d="M323.4,220.4l-3.9,6.2c-0.9,4-4.9,5.3-5.5,9.2l7-0.1C324.5,231.6,322,225.1,323.4,220.4z"/>
		<path class="st1" d="M230,229.6c19.5,7.7,43.5,3,61.6,5.8c-14.3-3.7-29.2-6.1-43.2-10.4l-0.1,1.8c-0.5,1.1-1.4,0.1-2,0.4
			c-1.1-0.8,0-1.6-0.7-2.4c-14.6-0.5-27.1-4.6-41.5-6.6C208.6,230.4,220.6,227.9,230,229.6z"/>
		<path class="st1" d="M204,223.8c-0.5-2.6-2.5-4.1-4.1-5.3c-1.7,1.7-2.9,4.1-2.9,7C199.3,227.3,201.9,225.5,204,223.8z"/>
		<path class="st1" d="M332.4,234.9c-0.1-0.3-0.7-1.8-1.9-1.5l-0.1,2.1C330.9,235.4,331.9,236.2,332.4,234.9z"/>
		<g>
			<path class="st2" d="M380.1,179.5c-27.4,24.8-68.6,35.4-113.9,33.1c-45.2-2.2-84.2-16.9-107.1-44.2l-28.8-7.1l30.8,158.3l191,9.6
				l57-153.9L380.1,179.5z"/>
			<g>
				<path class="st3" d="M252.2,238.1l-0.1,0.7l-9.2,84.9l5.9,0.3l9.2-84.8l0.1-0.7l2.9-26.4c-2-0.1-3.9-0.3-5.7-0.5L252.2,238.1z"
					/>
				<path class="st3" d="M223.2,235.7l-0.1,0.7l-9.4,85.9l5.9,0.3l9.4-85.7l0.1-0.7l3-28c-1.9-0.4-3.9-0.8-5.7-1.3L223.2,235.7z"/>
				<path class="st3" d="M194.2,233.3L194,234l-9.5,86.8l5.9,0.3l9.5-86.7l0.1-0.7l3.7-34.2c-1.9-0.8-3.7-1.6-5.6-2.4L194.2,233.3z"
					/>
				<path class="st3" d="M165.2,230.9l-0.1,0.7l-7.6,69.6l3.6,18.3h0.2L171,232l0.1-0.7l5.1-47.1c-1.9-1.3-3.6-2.8-5.4-4.2
					L165.2,230.9z"/>
				<polygon class="st3" points="139.3,201.1 138.8,205 142.5,224.2 142.9,221.1 145,201.7 148.9,165.9 143.3,164.5 				"/>
				<path class="st3" d="M237.7,236.9l-0.1,0.7l-9.4,85.3l5.9,0.3l9.4-85.2l0.1-0.7l2.9-26.6c-1.9-0.3-3.9-0.5-5.7-0.9L237.7,236.9z
					"/>
				<path class="st3" d="M208.6,234.5l-0.1,0.7l-9.5,86.3l5.9,0.3l9.4-86.1l0.1-0.7l3.4-30.5c-1.9-0.5-3.7-1.2-5.6-1.8L208.6,234.5z
					"/>
				<path class="st3" d="M179.7,232.1l-0.1,0.7l-9.5,87.3l5.9,0.3l9.5-87.1l0.1-0.7l4.4-39.6c-1.9-1.1-3.7-2.1-5.5-3.2L179.7,232.1z
					"/>
				<path class="st3" d="M157.5,168l-6.7,61.7l-0.1,0.7l-2.5,22.7l3.7,19.3l4.5-41.4l0.1-0.7l6.2-57.6c-1.2-1.3-2.5-2.8-3.7-4.1
					L157.5,168z"/>
				<polygon class="st3" points="133.2,176.1 134.7,162.4 130.3,161.3 				"/>
				<polygon class="st3" points="405.1,175.8 403.6,190.1 409.1,175.3 				"/>
				<path class="st3" d="M375,183.9l-7,63.8l-0.1,0.7l-5.9,53.6l8.2-22.4l3.4-30.7l0.1-0.7l7.5-68.9l-1.2,0.1
					C378.5,181,376.8,182.4,375,183.9z"/>
				<path class="st3" d="M339.1,245.3L339,246l-9,82.2l5.9,0.3l9-81.9l0.1-0.7l5.1-46.8c-2,0.9-4,1.7-6.1,2.6L339.1,245.3z"/>
				<path class="st3" d="M310.2,243l-0.1,0.7l-9.1,83.1l5.9,0.3l9.1-82.8l0.1-0.7l3.7-34.7c-2,0.4-4,0.8-6,1.2L310.2,243z"/>
				<path class="st3" d="M284.1,213.1l-2.1,19.4l-0.9,8l-0.1,0.7l-7.9,71.9l-1.4,12.1l5.9,0.3l1.2-12l7.9-71.9l0.1-0.7l0.9-8
					l2.1-19.4l0.1-0.9c-2,0.1-3.9,0.1-5.9,0.3L284.1,213.1z"/>
				<polygon class="st3" points="382.9,246 391.1,223.6 396.2,177.1 390.2,178.1 				"/>
				<path class="st3" d="M353.6,246.5l-0.1,0.7l-8.9,81.6l5.9,0.3l8.9-81.5l0.1-0.7l6.1-56.5c-2,1.3-4.1,2.5-6.2,3.7L353.6,246.5z"
					/>
				<path class="st3" d="M324.6,244.1l-0.1,0.7l-9,82.6l5.9,0.3l9-82.4l0.1-0.7l4.4-39.8c-2,0.7-4,1.2-6,1.8L324.6,244.1z"/>
				<path class="st3" d="M295.6,241.6l-0.1,0.7l-9.1,83.5l5.9,0.3l9.1-83.4l0.1-0.7l3.4-31c-2,0.3-4,0.5-5.9,0.7L295.6,241.6z"/>
				<path class="st3" d="M267.5,231.3l-0.9,8l-0.1,0.7l-7.9,71.9l-1.4,12.7l5.9,0.3l1.4-12.4l7.9-71.9l0.1-0.7l0.9-8l2.1-18.9
					c-2,0-3.9-0.1-5.9-0.1L267.5,231.3z"/>
			</g>
		</g>
		<polygon class="st4" points="159.1,311.3 163.1,327.2 348.2,337 355.1,321.4 		"/>
	</g>
	<g id="text_1_">
	</g>
	<g id="Layer_1_1_">
		<g>
			<polygon class="st5" points="374.3,272 163.1,296.1 145.1,244 382.8,216.8 			"/>
		</g>
		<text transform="matrix(0.8354 -7.820990e-02 8.342136e-02 0.9965 197.4534 276.1407)" class="st1 st6 st7">Crispy`s</text>
	</g>
</g>
</svg>
